<?xml version="1.0" encoding="UTF-8"?><svg id="Layer_1" xmlns="http://www.w3.org/2000/svg" xmlns:xlink="http://www.w3.org/1999/xlink" viewBox="0 0 174 36.19"><defs><style>.cls-1{fill:#fff;}.cls-2{fill:url(#linear-gradient);}.cls-3{fill:#b4b4b5;}</style><linearGradient id="linear-gradient" x1="0" y1="18.09" x2="79.5" y2="18.09" gradientUnits="userSpaceOnUse"><stop offset="0" stop-color="#e95513"/><stop offset=".98" stop-color="#f7b52c"/></linearGradient></defs><path class="cls-2" d="m18.66,12.63L12.63.95H0l12.81,22.05v12.63h11.5v-12.82L36.07,2.74v32.88h11.5V.95h-22.88l-6.03,11.68Zm47.45,1.13c-4.4-1.13-6.6-2.39-6.6-3.77-.13-1.25,1.13-1.94,3.77-2.07,1.13.12,2.08.37,2.83.75.88.38,1.44,1.13,1.7,2.26h10.74c-1.13-7.16-6.09-10.8-14.89-10.93-9.68.38-14.64,4.09-14.89,11.12,0,5.4,4.4,9.17,13.2,11.31,4.52,1.13,6.78,2.33,6.78,3.58-.13,1.63-1.76,2.45-4.9,2.45-1.39,0-2.45-.25-3.21-.75-1.01-.5-1.63-1.45-1.88-2.83h-10.93c1,7.16,6.15,10.93,15.45,11.31,10.56-.25,15.96-4.14,16.22-11.69,0-5.02-4.47-8.6-13.39-10.74Z"/><g><path class="cls-1" d="m84.67,10.78v-1.27l1.15-1.04c1.95-1.74,2.89-2.74,2.92-3.78,0-.73-.44-1.31-1.46-1.31-.76,0-1.44.38-1.91.74l-.59-1.49c.67-.51,1.71-.92,2.92-.92,2.02,0,3.12,1.18,3.12,2.8,0,1.5-1.08,2.69-2.37,3.84l-.82.69v.03h3.36v1.71h-6.32Z"/><path class="cls-1" d="m100.01,10.78v-1.27l1.15-1.04c1.95-1.74,2.89-2.74,2.92-3.78,0-.73-.44-1.31-1.46-1.31-.76,0-1.44.38-1.91.74l-.59-1.49c.67-.51,1.71-.92,2.92-.92,2.02,0,3.12,1.18,3.12,2.8,0,1.5-1.08,2.69-2.37,3.84l-.82.69v.03h3.36v1.71h-6.32Z"/><path class="cls-1" d="m98.86,6.28c0,2.76-1.11,4.65-3.39,4.65s-3.32-2.07-3.33-4.59c0-2.57,1.1-4.62,3.4-4.62s3.32,2.12,3.32,4.56Zm-4.62.06c-.01,2.04.48,3.02,1.29,3.02s1.25-1.02,1.25-3.05-.42-3.01-1.26-3.01c-.77,0-1.29.97-1.27,3.04Z"/><path class="cls-1" d="m109.21,3.72h-.03l-1.69.81-.35-1.56,2.36-1.1h1.73v8.91h-2.01V3.72Z"/></g><g><path class="cls-1" d="m86.61,23.39v-3.14l-2.42-4.53h1.98l.78,1.84c.24.56.4.96.59,1.47h.02c.17-.48.35-.93.58-1.47l.77-1.84h1.94l-2.52,4.47v3.2h-1.73Z"/><path class="cls-1" d="m98.18,19.48c0,2.52-1.53,4.04-3.77,4.04s-3.6-1.72-3.6-3.91,1.47-4.01,3.73-4.01,3.64,1.76,3.64,3.87Zm-5.54.1c0,1.5.71,2.56,1.87,2.56s1.84-1.12,1.84-2.61c0-1.38-.66-2.56-1.85-2.56s-1.86,1.11-1.86,2.6Z"/><path class="cls-1" d="m99.31,23.39v-7.67h2.02l1.59,2.81c.45.81.91,1.76,1.25,2.63h.03c-.11-1.01-.15-2.05-.15-3.2v-2.24h1.59v7.67h-1.82l-1.63-2.96c-.45-.82-.95-1.81-1.33-2.7h-.04c.05,1.03.07,2.1.07,3.36v2.31h-1.59Z"/><path class="cls-1" d="m108.89,15.72v2.95h2.86v-2.95h1.73v7.67h-1.73v-3.21h-2.86v3.21h-1.74v-7.67h1.74Z"/><path class="cls-1" d="m116.77,21.43l-.55,1.97h-1.79l2.34-7.67h2.28l2.37,7.67h-1.86l-.59-1.97h-2.2Zm1.95-1.3l-.48-1.62c-.14-.46-.27-1.03-.39-1.48h-.02c-.11.45-.23,1.04-.35,1.48l-.45,1.62h1.69Z"/><path class="cls-1" d="m122.44,15.83c.54-.09,1.28-.16,2.34-.16s1.83.21,2.34.61c.49.38.82,1.02.82,1.77s-.25,1.39-.71,1.82c-.59.55-1.47.81-2.49.81-.23,0-.43,0-.59-.03v2.74h-1.72v-7.56Zm1.72,3.48c.15.03.33.05.58.05.92,0,1.49-.47,1.49-1.26,0-.71-.49-1.12-1.36-1.12-.35,0-.59.03-.71.07v2.26Z"/><path class="cls-1" d="m129.05,23.39v-7.67h2.03l1.59,2.81c.46.81.91,1.76,1.26,2.63h.03c-.12-1.01-.15-2.05-.15-3.2v-2.24h1.59v7.67h-1.82l-1.64-2.96c-.45-.82-.95-1.81-1.32-2.7h-.03c.04,1.03.06,2.1.06,3.36v2.31h-1.59Z"/><path class="cls-1" d="m141.45,20.15h-2.82v1.82h3.15v1.42h-4.89v-7.67h4.73v1.42h-2.99v1.59h2.82v1.41Z"/><path class="cls-1" d="m144.28,23.39l-1.82-7.67h1.85l.57,3.16c.17.9.33,1.9.46,2.67h.02c.13-.83.31-1.75.5-2.7l.65-3.14h1.84l.61,3.23c.17.9.3,1.72.41,2.57h.02c.11-.85.29-1.75.44-2.66l.62-3.14h1.76l-1.98,7.67h-1.88l-.65-3.3c-.15-.77-.27-1.49-.36-2.36h-.02c-.14.87-.26,1.59-.44,2.36l-.73,3.3h-1.9Z"/><path class="cls-1" d="m153.11,21.61c.47.24,1.18.48,1.92.48.8,0,1.22-.33,1.22-.84,0-.47-.37-.75-1.29-1.07-1.27-.45-2.11-1.15-2.11-2.26,0-1.31,1.1-2.31,2.9-2.31.86,0,1.5.18,1.95.38l-.39,1.4c-.31-.15-.85-.37-1.6-.37s-1.11.34-1.11.74c0,.49.43.71,1.42,1.08,1.35.5,1.99,1.21,1.99,2.29,0,1.29-.99,2.38-3.1,2.38-.87,0-1.74-.24-2.17-.47l.35-1.43Z"/><path class="cls-1" d="m162.52,17.18h-2.06v-1.46h5.89v1.46h-2.1v6.21h-1.74v-6.21Z"/><path class="cls-1" d="m169.4,23.39l-2.45-7.67h1.89l.94,3.24c.26.91.5,1.78.68,2.74h.03c.19-.92.43-1.83.69-2.71l.98-3.27h1.84l-2.58,7.67h-2.02Z"/><path class="cls-3" d="m87.53,27.64v7.66h-1.74v-7.66h1.74Z"/><path class="cls-3" d="m90.51,29.09h-2.06v-1.45h5.89v1.45h-2.09v6.21h-1.74v-6.21Z"/><path class="cls-3" d="m97.61,33.52c.47.24,1.18.48,1.93.48.79,0,1.22-.33,1.22-.83s-.36-.75-1.29-1.08c-1.27-.44-2.11-1.15-2.11-2.26,0-1.3,1.1-2.3,2.9-2.3.87,0,1.5.18,1.96.39l-.39,1.39c-.3-.15-.85-.36-1.6-.36s-1.12.34-1.12.74c0,.49.43.7,1.42,1.08,1.35.5,1.99,1.2,1.99,2.28,0,1.28-.99,2.38-3.09,2.38-.88,0-1.74-.22-2.17-.46l.35-1.43Z"/><path class="cls-3" d="m105.47,35.3v-3.13l-2.42-4.53h1.98l.78,1.84c.25.56.4.97.6,1.47h.03c.17-.47.35-.92.57-1.47l.77-1.84h1.94l-2.52,4.47v3.19h-1.73Z"/><path class="cls-3" d="m116.79,32.37c-.03-.92-.06-2.03-.06-3.15h-.04c-.24.98-.56,2.07-.86,2.97l-.93,2.99h-1.35l-.82-2.96c-.25-.9-.51-1.99-.7-2.99h-.02c-.05,1.03-.08,2.22-.14,3.17l-.14,2.91h-1.61l.49-7.66h2.31l.75,2.56c.24.88.48,1.84.65,2.74h.03c.22-.89.48-1.9.73-2.76l.82-2.55h2.27l.42,7.66h-1.7l-.12-2.94Z"/><path class="cls-3" d="m119.93,27.75c.53-.09,1.28-.16,2.34-.16s1.83.2,2.34.61c.49.38.82,1.02.82,1.77s-.25,1.39-.71,1.82c-.59.55-1.47.81-2.49.81-.23,0-.43-.01-.59-.04v2.74h-1.72v-7.56Zm1.72,3.48c.15.03.32.04.57.04.93,0,1.49-.47,1.49-1.25,0-.7-.49-1.13-1.36-1.13-.35,0-.59.04-.71.07v2.26Z"/><path class="cls-3" d="m133.55,31.4c0,2.51-1.53,4.04-3.76,4.04s-3.6-1.72-3.6-3.9c0-2.3,1.47-4.01,3.73-4.01s3.64,1.76,3.64,3.88Zm-5.54.1c0,1.5.71,2.55,1.87,2.55s1.84-1.11,1.84-2.6c0-1.37-.66-2.56-1.85-2.56s-1.85,1.11-1.85,2.61Z"/><path class="cls-3" d="m134.74,33.52c.47.24,1.18.48,1.92.48.79,0,1.22-.33,1.22-.83s-.37-.75-1.28-1.08c-1.27-.44-2.1-1.15-2.1-2.26,0-1.3,1.09-2.3,2.9-2.3.86,0,1.5.18,1.95.39l-.39,1.39c-.31-.15-.85-.36-1.6-.36s-1.11.34-1.11.74c0,.49.43.7,1.42,1.08,1.35.5,1.99,1.2,1.99,2.28,0,1.28-.99,2.38-3.1,2.38-.88,0-1.74-.22-2.17-.46l.35-1.43Z"/><path class="cls-3" d="m142.56,27.64v7.66h-1.74v-7.66h1.74Z"/><path class="cls-3" d="m145.79,27.64v4.41c0,1.32.5,1.99,1.39,1.99s1.41-.63,1.41-1.99v-4.41h1.73v4.29c0,2.37-1.2,3.5-3.2,3.5s-3.07-1.07-3.07-3.51v-4.28h1.74Z"/><path class="cls-3" d="m158.3,32.37c-.04-.92-.07-2.03-.07-3.15h-.04c-.24.98-.55,2.07-.85,2.97l-.93,2.99h-1.36l-.82-2.96c-.25-.9-.51-1.99-.69-2.99h-.02c-.05,1.03-.08,2.22-.13,3.17l-.14,2.91h-1.61l.49-7.66h2.31l.75,2.56c.24.88.48,1.84.65,2.74h.03c.22-.89.48-1.9.73-2.76l.82-2.55h2.26l.42,7.66h-1.7l-.11-2.94Z"/></g></svg>