<?xml version="1.0" encoding="utf-8"?>
<!-- Generator: Adobe Illustrator 27.3.1, SVG Export Plug-In . SVG Version: 6.00 Build 0)  -->
<svg version="1.1" id="Layer_1" xmlns="http://www.w3.org/2000/svg" xmlns:xlink="http://www.w3.org/1999/xlink" x="0px" y="0px"
	 viewBox="0 0 605 247.4" style="enable-background:new 0 0 605 247.4;" xml:space="preserve">
<style type="text/css">
	.st0{fill:#FFFFFF;}
	.st1{fill:#FDD23E;}
	.st2{fill:#E50A11;}
</style>
<g>
	<path class="st0" d="M22.9,20v-7h-5.1c-0.7,0.9-1.5,1.6-2.6,2.1c-1,0.5-2.2,0.8-3.5,0.8c-2.2,0-4.1-0.8-5.5-2.3
		c-1.4-1.5-2.2-3.3-2.2-5.3s0.7-3.8,2.2-5.3c1.4-1.5,3.3-2.2,5.5-2.2c1.1,0,2.2,0.2,3.1,0.6c1,0.4,1.8,1,2.4,1.6h5.6V0.3h4.4V20
		L22.9,20L22.9,20z M8,26.9v-9.3h4.3v5.4h15.5v4C27.9,26.9,8,26.9,8,26.9z M14.3,5.7c-0.6-0.7-1.4-1.1-2.5-1.1S10,5,9.4,5.7
		S8.5,7.3,8.5,8.3s0.3,1.8,0.9,2.6c0.6,0.8,1.4,1.1,2.5,1.1c1.1,0,1.9-0.4,2.5-1.1c0.6-0.8,0.9-1.6,0.9-2.6S14.9,6.5,14.3,5.7z
		 M22.9,6.9h-3.5c0,0.2,0.1,0.4,0.1,0.7c0,0.2,0,0.5,0,0.7c0,0.1,0,0.3,0,0.4c0,0.1,0,0.3-0.1,0.4h3.5L22.9,6.9L22.9,6.9z"/>
	<path class="st0" d="M30.6,7.5V4.2H47v3.4H30.6z M44.3,15.2c-1.4,0.8-3.2,1.2-5.6,1.2c-2.2,0-4-0.4-5.4-1.2c-1.5-0.8-2.2-1.9-2.2-3
		s0.7-2.2,2.2-3c1.5-0.8,3.3-1.2,5.5-1.2s4.1,0.4,5.5,1.1c1.4,0.8,2,1.8,2,2.9S45.7,14.4,44.3,15.2z M34.2,27.2V16.9h4.3v1.7h10.1
		v-1.7h4.3v10.2H34.2z M34.3,3.3V0h9v3.3L34.3,3.3L34.3,3.3z M41.1,11.3c-0.5-0.2-1.3-0.2-2.2-0.2s-1.7,0.1-2.2,0.2
		s-0.8,0.4-0.8,0.9s0.3,0.7,0.8,0.9c0.5,0.2,1.3,0.3,2.2,0.3s1.7-0.1,2.2-0.3c0.5-0.2,0.8-0.5,0.8-0.9S41.6,11.5,41.1,11.3
		L41.1,11.3z M48.6,22.1H38.5v1.5h10.1V22.1z M52.9,10.6v5.2h-4.3V0.3h4.3v6.4h3.3v3.9L52.9,10.6L52.9,10.6z"/>
	<path class="st0" d="M76.6,18.5v8.9h-4.3v-8.9h-5.2v8.6h-4.3v-8.6h-6.1v-3.9h25.8v3.9H76.6L76.6,18.5z M59.8,11.6V0.9h4.3v6.7h15.7
		v3.9L59.8,11.6L59.8,11.6z"/>
	<path class="st0" d="M83.4,24.6v-4h25.8v4H83.4z M105.4,17.4c-1.4-0.4-3-1.2-4.8-2.4c-1.8-1.2-3.2-2.6-4.3-4.3
		c-0.8,1.3-2.1,2.6-3.8,4s-3.5,2.2-5.2,2.8L84.4,14c1.8-0.6,3.9-1.7,6.2-3.3S94,6.9,94,4.3V1.2h4.7v3.1c0,2.5,1.1,4.6,3.3,6.2
		s4.3,2.8,6.4,3.5C108.4,14,105.4,17.3,105.4,17.4z"/>
	<path class="st0" d="M121.4,6.6v18.7h-4.1l0-18.7h-6.7V2.6H128v4L121.4,6.6L121.4,6.6z"/>
	<path class="st0" d="M142.7,25.2h-4.6l-8.2-22.7h4.2l6.3,17.3l6.3-17.3h4.2L142.7,25.2L142.7,25.2z"/>
	<path class="st0" d="M173.4,16.3c-0.9,0.1-1.8,0.1-2.9,0.2c-1.7,0.1-3.9,0.1-6.6,0.1s-4.1,0-4.4,0v-3.9h3L162,6.4h4.3l0.4,6.3
		l2.1,0l0.4-6.2h4.3l-0.5,6c0.7,0,1.2-0.1,1.6-0.1c0.4,0,0.9-0.1,1.6-0.2V16C175.2,16.1,174.2,16.2,173.4,16.3L173.4,16.3z
		 M160.3,5.5v-4h15.3v3.9L160.3,5.5L160.3,5.5z M163.2,26.9v-9.1h4.3v5.1h15.3v4C182.8,26.9,163.2,26.9,163.2,26.9z M182.1,11.5V20
		h-4.3V0.3h4.3v7.3h3.3v3.9C185.4,11.5,182.1,11.5,182.1,11.5z"/>
	<path class="st0" d="M185.6,24.7v-4h5.3v-8.5h4.4v8.5h2.1v-8.5h4.4v8.5h9.6v4H185.6z M208.3,10.5c-0.2,2.6-0.6,5-1.2,7.2h-4.3
		c0.3-1.7,0.6-3.4,0.9-5.2c0.2-1.8,0.4-3.7,0.5-5.7h-16V3h20.7C208.7,5.5,208.5,8,208.3,10.5L208.3,10.5z"/>
	<path class="st0" d="M213.8,25.1V2.5h4.1v22.7L213.8,25.1z"/>
	<path class="st0" d="M231.5,6.6v18.7h-4.1l0-18.7h-6.7V2.6h17.4v4L231.5,6.6L231.5,6.6z"/>
	<path class="st0" d="M254.5,15.4c-0.6-0.2-1.5-0.8-2.7-1.6c-1.2-0.8-2.3-1.9-3.4-3.2c-0.5,1.2-1.5,2.3-2.9,3.3s-2.4,1.7-3,2.1
		l-3.1-3.1c1.7-0.8,3.3-2,4.6-3.6s2-3.5,2-5.8V0.9h4.6v2.6c0,2.3,0.8,4.2,2.3,5.7s2.9,2.5,4.2,2.9L254.5,15.4L254.5,15.4z
		 M244.3,27.2V16.6h19.2v10.5H244.3z M259.1,20.6h-10.5v2.6h10.5V20.6z M259.2,15.6V0.3h4.3v15.4L259.2,15.6L259.2,15.6z"/>
	<path class="st0" d="M266.2,25.1v-4h10.7v-3.8h-8.5v-3.9h4l-0.5-6.3h4.3l0.5,6.3h5l0.5-6.3h4.3l-0.6,6.3h4v3.9h-8.5v3.8h10.7v4
		H266.2L266.2,25.1z M269,6.1v-4h20.3v4H269z"/>
	<path class="st0" d="M308.9,22.9c-1.2-0.6-2.3-1.4-3.4-2.4s-2-2.3-2.8-3.7c-0.9,1.6-1.9,3-3.1,4.2s-2.3,2-3.1,2.5l-3-3.3
		c1.6-0.9,3.2-2.3,4.7-4.2s2.2-4.5,2.2-7.8V6.6h-5.4v-4h15.4v4H305v1.5c0,3.6,0.8,6.2,2.3,7.8s3,2.7,4.3,3.4L308.9,22.9z
		 M313.3,27.5V0.3h4.3v27.2C317.6,27.5,313.3,27.5,313.3,27.5z"/>
	<path class="st0" d="M339.2,15.4V9.6h-3.9c-0.4,1.5-1.3,2.8-2.6,3.8s-2.9,1.5-4.7,1.5c-2.2,0-4-0.7-5.4-2.1c-1.4-1.4-2.1-3.1-2.1-5
		s0.7-3.6,2.1-5c1.4-1.4,3.2-2.1,5.4-2.1c1.8,0,3.3,0.5,4.5,1.4s2.1,2.1,2.6,3.5h4V0.3h4.3v15.2H339.2L339.2,15.4z M324.2,27.2V16.5
		h19.2v10.6H324.2z M330.3,5.5c-0.6-0.6-1.4-1-2.4-1s-1.8,0.3-2.4,1s-0.8,1.4-0.8,2.3s0.3,1.6,0.8,2.3c0.6,0.6,1.4,1,2.4,1
		s1.8-0.3,2.4-1s0.8-1.4,0.8-2.3S330.9,6.2,330.3,5.5z M339.1,20.5h-10.5v2.8h10.5V20.5z"/>
	<path class="st0" d="M351.8,18v-3.8h25.8V18H351.8z M370.1,27.5v-4.4h-15.5v-3.8h20.1v8.2H370.1z M354.8,13V0.6h19.7v3.5h-15.4v1.1
		h15.2v3.4h-15.2v1h15.7V13L354.8,13L354.8,13z"/>
	<path class="st0" d="M394.1,14.6c-1.3-0.3-2.5-0.8-3.6-1.6c-1.1-0.7-1.9-1.5-2.5-2.2c-0.5,0.8-1.4,1.6-2.5,2.4
		c-1.1,0.9-2.4,1.5-3.8,1.9l-2.6-3.4c1-0.3,2.4-0.9,4-1.9s2.5-2.3,2.5-4V5.4h-4.7V1.5h14v3.9h-4.8v0.5c0,1.7,0.8,2.9,2.3,3.7
		c1.5,0.8,2.8,1.3,3.8,1.6L394.1,14.6L394.1,14.6z M383.9,27.2V15.5h4.3v2.4h10.5v-2.4h4.3v11.6H383.9L383.9,27.2z M398.8,21.6
		h-10.5v1.8h10.5V21.6z M398.9,14.7V0.3h4.3v14.4L398.9,14.7L398.9,14.7z"/>
	<path class="st0" d="M421.1,21.6c-1.2,0.2-2.8,0.3-4.8,0.3h-3.8V3.2h9.7v3.9h-5.4v10.8h1.3c1,0,2-0.1,3-0.2s1.9-0.3,2.3-0.4v3.8
		C423.1,21.2,422.3,21.4,421.1,21.6L421.1,21.6z M430.7,27.5V14.8h-1.9v11.4h-4.2V0.9h4.2v9.4h1.9v-10h4.2v27.2L430.7,27.5
		L430.7,27.5z"/>
	<path class="st0" d="M450.2,13.5c-1.8,0.3-4.4,0.4-7.7,0.4h-4V1.6h13.6v3.9h-9.3v4.3h2c1.9,0,3.7-0.1,5.5-0.3
		c1.8-0.2,3.1-0.4,3.9-0.6v3.8C453.4,12.9,452.1,13.2,450.2,13.5L450.2,13.5z M441.3,27.2V15.9H460v11.3H441.3z M455.7,19.8h-10.1
		v3.4h10.1V19.8z M460,9.8v5h-4.3V0.3h4.3v5.6h3.5v3.9C463.5,9.8,460,9.8,460,9.8z"/>
</g>
<g>
	<path class="st1" d="M29.4,101v-24h-4.9v15.2H4.2V57h20.4v12.3h4.9V51.9h7.3V101L29.4,101L29.4,101z M17,64h-5.4v21.4H17
		C17,85.4,17,64,17,64z M40.3,103.4V50.7h7.3v52.7H40.3z"/>
	<path class="st1" d="M79.3,92.1c-1.7,0.2-3.4,0.4-5.2,0.5c-1.8,0-4.3,0.1-7.4,0.2c-3.1,0.1-7,0.2-11.7,0.2V55.6h24.8v6.9H62.5v7.9
		h16.6v6.9H62.5v8.8c1.9,0,3.6,0,5.1,0c1.5,0,3.7-0.1,6.3-0.3c1.8-0.1,3.6-0.3,5.3-0.5s3.3-0.4,4.8-0.6v6.8
		C82.6,91.7,81,91.8,79.3,92.1L79.3,92.1z M95.1,78.3v25.1h-7.6V50.7h7.6v20.1h6.9v7.5C102,78.3,95.1,78.3,95.1,78.3z"/>
	<path class="st1" d="M140.5,103.4V76.5H132v16.5h-25.7V55h7.6v11.8h10.6V55h7.5v14.3h8.5V50.7h7.6v52.7L140.5,103.4L140.5,103.4z
		 M124.5,73.8h-10.6v12.4h10.6C124.5,86.2,124.5,73.8,124.5,73.8z"/>
	<path class="st1" d="M153,97.5v-6.8h50.1v6.8H153z M196.1,83.6c-2.7-0.8-5.8-2.5-9.5-5c-3.7-2.6-6.5-5.3-8.4-8.4
		c-1.8,3-4.4,5.7-8,8.2c-3.6,2.5-6.9,4.2-10,5.2l-4.9-5.8c4.9-1.6,9.2-4.1,13-7.5c3.8-3.3,5.8-7.4,5.8-12.1v-5.1h8.4v5.1
		c0,4.7,1.8,8.7,5.5,11.9c3.7,3.2,8,5.8,13,7.7L196.1,83.6L196.1,83.6z"/>
	<path class="st1" d="M251.8,93.4c-2.1-1.2-4.3-3-6.8-5.3c-2.4-2.3-4.4-4.9-5.8-7.8c-1.1,2.9-2.9,5.6-5.4,8.1s-4.7,4.3-6.6,5.5
		l-5.6-5.2c2.9-1.6,5.9-4.3,8.9-8.1c3-3.7,4.6-8.9,4.6-15.4V53.6h8.1v11.7c0,6.5,1.6,11.5,4.7,15s5.9,6,8.5,7.5L251.8,93.4
		L251.8,93.4z M260.9,103.4V50.7h7.6v52.7H260.9z"/>
	<path class="st1" d="M293,91.8c-2.2,0.3-5.2,0.5-9,0.5h-7.6V56.6h18.3v7h-10.7v21.8h3.4c1.9,0,3.8-0.2,5.9-0.5
		c2-0.3,3.5-0.5,4.2-0.6v6.8C296.7,91.2,295.2,91.4,293,91.8L293,91.8z M312.1,103.4V78.1h-4.7V101h-7.3V51.9h7.3v18.2h4.7V50.7h7.3
		v52.7C319.4,103.4,312.1,103.4,312.1,103.4z"/>
	<path class="st1" d="M23.3,165.4c-1-0.8-2.3-2.2-4.2-4.1c-1.8-1.9-3.4-4.3-4.8-7.2c-0.6,2-1.7,4.3-3.5,6.7s-3.6,4.5-5.4,6.1L0,162
		c2.9-2.4,5.4-5.6,7.4-9.6c2-4,3-8.6,3-13.7v-12h8.1v12c0,5.1,0.8,9.2,2.5,12.4c1.7,3.2,4.1,6.2,7.2,9.1L23.3,165.4z M41.4,175.3
		V150h-4.3v22.9h-7.3v-49.1h7.3v18h4.3v-19.2h7.3v52.7H41.4z"/>
	<path class="st1" d="M51.7,170.8v-6.8h20.7v-6.8H58.2v-19.2h29.6v-5.6H58.2v-6.9h37.2v19.3H65.7v5.5h30.5v6.9H80.5v6.8h21.3v6.8
		H51.7L51.7,170.8z"/>
	<path class="st1" d="M131.9,155.2v9.3h-7.9v-9.3h-21.6v-6.9h50.1v6.9H131.9z M142.2,125.5c3.5,2.2,5.3,4.9,5.3,8.1
		s-1.8,5.9-5.3,8.1s-8.5,3.4-14.8,3.4c-6.3,0-11.2-1.1-14.8-3.4s-5.3-4.9-5.3-8.1s1.8-5.7,5.3-8s8.5-3.4,14.8-3.4
		C133.7,122.2,138.7,123.3,142.2,125.5z M108.4,174.1v-15h7.9v8.1h31.6v6.9H108.4z M119,137c2.1,1,4.9,1.5,8.4,1.5
		c3.5,0,6.3-0.5,8.4-1.5s3.1-2.1,3.1-3.4c0-1.4-1-2.5-3.1-3.5c-2.1-1-4.9-1.5-8.4-1.5c-3.5,0-6.2,0.5-8.4,1.5
		c-2.1,1-3.2,2.1-3.2,3.3C115.9,134.8,116.9,136,119,137L119,137z"/>
	<path class="st1" d="M200.3,149.4v2.9h15.2v13.9h-29.6v2.4h30.8v6.1h-39.5v-14h29.6v-2.4h-29.6v-6.1h15.2v-2.9h-21.1v-6.2h50.1v6.2
		L200.3,149.4L200.3,149.4z M177.1,140.4v-16.5h38.4v16.5H177.1z M207.9,130.2h-23.2v3.9h23.2V130.2z"/>
	<path class="st1" d="M244.3,141.7c-4.8,4.6-10.6,7.5-17.3,8.7l-3.9-5.5c5.1-0.7,9.4-2.4,13.2-5.2c3.8-2.8,5.6-5.3,5.6-7.6h-15.6
		v-6.7h25.2C251.5,131.7,249.1,137.1,244.3,141.7L244.3,141.7z M231.6,174.7v-14h29.1V158h-29.1v-6h37v14h-29.1v2.7h30.2v5.9
		L231.6,174.7L231.6,174.7z M261.1,149.9v-3.9h-9.2v-6.5h9.2v-3.8h-8.4v-6.5h8.4v-6.6h7.6v27.3L261.1,149.9L261.1,149.9z"/>
	<path class="st1" d="M300,127.8c2.8,2.7,4.1,6.1,4.1,10s-1.4,7.1-4.1,9.9s-6.2,4.1-10.5,4.1s-7.8-1.4-10.5-4.1
		c-2.8-2.8-4.1-6.1-4.1-9.9s1.4-7.2,4.1-10c2.8-2.7,6.2-4.1,10.5-4.1S297.3,125,300,127.8z M282.3,174.1v-17.5h7.7v10.6h30.7v6.9
		H282.3z M284.4,132.6c-1.2,1.4-1.8,3.2-1.8,5.1s0.6,3.6,1.8,5.1c1.2,1.4,2.9,2.2,5.1,2.2s3.9-0.7,5.1-2.2c1.2-1.4,1.8-3.1,1.8-5.1
		s-0.6-3.7-1.8-5.1c-1.2-1.4-2.9-2.2-5.1-2.2S285.6,131.1,284.4,132.6z M311.8,160.6v-38h7.6v38H311.8z"/>
	<path class="st1" d="M345.5,152.2c-4.7,6.6-10,11.3-16.1,14.3l-5.9-4.7c6-2.7,10.9-6.6,14.5-11.7c3.6-5.1,5.4-10.2,5.4-15.2h-16.6
		v-6.8h25.8C352.5,137.6,350.2,145.6,345.5,152.2L345.5,152.2z M367.2,150.7v24.6h-7.6v-52.7h7.6v20.8h7.1v7.3L367.2,150.7
		L367.2,150.7z"/>
	<path class="st1" d="M384.2,164.1v6.2c0,1.3-0.2,2.4-0.6,3.2s-0.9,1.6-1.5,2.3c-0.8,1-1.8,1.8-2.9,2.2c-1.1,0.5-1.8,0.8-2.2,0.9
		l-2-2.5c1.2-0.3,2.4-0.8,3.4-1.4s1.6-1.5,1.8-2.7H375v-8.3L384.2,164.1L384.2,164.1z"/>
	<path class="st1" d="M425.3,152.2c-4.7,6.6-10,11.3-16.1,14.3l-5.9-4.7c6-2.7,10.9-6.6,14.5-11.7c3.6-5.1,5.4-10.2,5.4-15.2h-16.6
		v-6.8h25.8C432.4,137.6,430,145.6,425.3,152.2L425.3,152.2z M440.9,175.3v-25.2h-9.7v-7.2h9.7v-20.3h7.6v52.7H440.9z"/>
	<path class="st1" d="M481.8,153.2v3.8h14.9v17.7h-37.9V157h14.8v-3.8h-20.9v-6.8h50.1v6.8H481.8L481.8,153.2z M457,143.5v-6.6h7.6
		l-0.5-6.4h-5.9v-6.6h39v6.6h-5.9l-0.5,6.4h7.6v6.6H457L457,143.5z M488.9,163.8h-22.4v4h22.4V163.8z M471.7,130.4l0.5,6.4h11
		l0.5-6.4H471.7L471.7,130.4z"/>
	<path class="st1" d="M530.8,127.8c2.8,2.7,4.1,6.1,4.1,10s-1.4,7.1-4.1,9.9c-2.8,2.8-6.2,4.1-10.5,4.1s-7.8-1.4-10.5-4.1
		c-2.8-2.8-4.1-6.1-4.1-9.9s1.4-7.2,4.1-10c2.8-2.7,6.2-4.1,10.5-4.1S528,125,530.8,127.8z M513,174.1v-17.5h7.7v10.6h30.7v6.9H513z
		 M515.1,132.6c-1.2,1.4-1.8,3.2-1.8,5.1s0.6,3.6,1.8,5.1s2.9,2.2,5.1,2.2s3.9-0.7,5.1-2.2c1.2-1.4,1.8-3.1,1.8-5.1
		s-0.6-3.7-1.8-5.1s-2.9-2.2-5.1-2.2S516.3,131.1,515.1,132.6z M542.6,160.6v-38h7.6v38H542.6z"/>
	<path class="st1" d="M576.2,152.2c-4.7,6.6-10,11.3-16.1,14.3l-5.9-4.7c6-2.7,10.8-6.6,14.5-11.7c3.6-5.1,5.4-10.2,5.4-15.2h-16.6
		v-6.8h25.8C583.2,137.6,580.9,145.6,576.2,152.2L576.2,152.2z M597.9,150.7v24.6h-7.6v-52.7h7.6v20.8h7.1v7.3L597.9,150.7
		L597.9,150.7z"/>
</g>
<rect x="1" y="198.2" class="st0" width="601.9" height="1.5"/>
<rect x="1" y="245.9" class="st0" width="601.9" height="1.5"/>
<g>
	<g>
		<path class="st0" d="M6.7,226.3c0.5-0.4,0.8-0.7,0.9-0.8c0.9-0.8,1.6-1.4,2.1-1.9c0.5-0.5,1-1,1.3-1.6c0.4-0.5,0.5-1.1,0.5-1.6
			c0-0.7-0.2-1.3-0.7-1.8c-0.4-0.4-1-0.6-1.7-0.6c-1.2,0-2,0.6-2.6,1.8l-1.5-0.7c0.4-1,1-1.7,1.8-2.1s1.5-0.6,2.2-0.6
			c0.7,0,1.3,0.2,1.9,0.5c0.6,0.3,1.1,0.8,1.5,1.4c0.4,0.6,0.6,1.3,0.6,2.1s-0.2,1.5-0.7,2.2c-0.4,0.7-1,1.4-1.6,2
			c-0.6,0.6-1.4,1.4-2.4,2.3c-0.5,0.4-0.8,0.7-0.7,0.6h5.6v1.6h-8v-1.6h0C5.7,227.2,6.2,226.8,6.7,226.3z"/>
		<path class="st0" d="M15,219.4c0.4-1,0.9-1.8,1.7-2.3c0.7-0.5,1.5-0.8,2.5-0.8s1.8,0.3,2.5,0.8s1.3,1.3,1.6,2.3s0.6,2.2,0.6,3.5
			s-0.2,2.5-0.6,3.5c-0.4,1-0.9,1.8-1.6,2.3s-1.5,0.8-2.5,0.8s-1.8-0.3-2.5-0.8s-1.3-1.3-1.7-2.3c-0.4-1-0.6-2.2-0.6-3.5
			C14.5,221.6,14.6,220.4,15,219.4z M21.5,226.6c0.5-0.8,0.8-2.1,0.8-3.7s-0.3-2.9-0.8-3.7c-0.5-0.8-1.3-1.2-2.3-1.2
			c-2.1,0-3.2,1.7-3.2,5c0,1.7,0.3,2.9,0.8,3.7c0.6,0.8,1.3,1.2,2.4,1.2S21,227.5,21.5,226.6z"/>
		<path class="st0" d="M26.7,226.3c0.5-0.4,0.8-0.7,0.9-0.8c0.9-0.8,1.6-1.4,2.1-1.9c0.5-0.5,1-1,1.3-1.6c0.3-0.5,0.5-1.1,0.5-1.6
			c0-0.7-0.2-1.3-0.7-1.8c-0.5-0.4-1-0.6-1.7-0.6c-1.2,0-2,0.6-2.6,1.8l-1.5-0.7c0.4-1,1-1.7,1.8-2.1s1.5-0.6,2.2-0.6
			c0.7,0,1.3,0.2,1.9,0.5c0.6,0.3,1.1,0.8,1.5,1.4c0.4,0.6,0.6,1.3,0.6,2.1s-0.2,1.5-0.7,2.2c-0.4,0.7-1,1.4-1.6,2s-1.4,1.4-2.5,2.3
			c-0.5,0.4-0.8,0.7-0.7,0.6h5.6v1.6h-8v-1.6h0C25.7,227.2,26.2,226.8,26.7,226.3L26.7,226.3z"/>
		<path class="st0" d="M37.8,229.4h-1.5v-11.3l-1.4,0.5l-0.5-1.5l1.9-0.7h1.5L37.8,229.4L37.8,229.4z"/>
		<path class="st0" d="M40.6,215.9h1.7v7.1c2.3,0,4.4-0.2,6.3-0.6l0.2,1.4c-1.2,0.2-2.3,0.4-3.4,0.4s-2.3,0.1-3.6,0.1h-1.2
			L40.6,215.9L40.6,215.9z M42.6,225.7h1.7v3.5h9v1.4H42.6C42.6,230.6,42.6,225.7,42.6,225.7z M52.8,214.8v12h-1.7v-5.5h-4.3v-1.3
			h4.3v-1.7h-4.3v-1.4h4.3v-2L52.8,214.8L52.8,214.8z"/>
		<path class="st0" d="M62,229.4h-1.5v-11.3l-1.4,0.5l-0.5-1.5l1.9-0.7H62L62,229.4L62,229.4z"/>
		<path class="st0" d="M64.6,219.4c0.4-1,0.9-1.8,1.7-2.3c0.7-0.5,1.6-0.8,2.5-0.8s1.8,0.3,2.5,0.8s1.3,1.3,1.7,2.3s0.6,2.2,0.6,3.5
			s-0.2,2.5-0.6,3.5c-0.4,1-0.9,1.8-1.7,2.3s-1.6,0.8-2.5,0.8s-1.8-0.3-2.5-0.8s-1.3-1.3-1.7-2.3c-0.4-1-0.6-2.2-0.6-3.5
			C64,221.6,64.2,220.4,64.6,219.4z M71.1,226.6c0.5-0.8,0.8-2.1,0.8-3.7s-0.3-2.9-0.8-3.7c-0.5-0.8-1.3-1.2-2.3-1.2
			c-2.1,0-3.2,1.7-3.2,5c0,1.7,0.3,2.9,0.8,3.7c0.6,0.8,1.3,1.2,2.3,1.2S70.6,227.5,71.1,226.6z"/>
		<path class="st0" d="M80,220.7c1.6,0,3.2-0.1,4.7-0.3l0.1,1.1c-1.5,0.2-3,0.4-4.5,0.4v2.4h-1.6V222c-0.9,0-2.3,0-4,0l-0.2-1.2
			C76.5,220.8,78.4,220.7,80,220.7L80,220.7z M76.7,215.7c0.7-0.4,1.7-0.6,2.8-0.6s2.1,0.2,2.8,0.6c0.7,0.4,1.1,1,1.1,1.8
			s-0.4,1.3-1.1,1.8c-0.7,0.4-1.7,0.7-2.8,0.7s-2.2-0.2-2.8-0.7c-0.7-0.4-1.1-1-1.1-1.8S76,216.2,76.7,215.7z M76.9,224.8h10.7v3.5
			h-9.1v1.3h9.6v1.2H76.9v-3.6h9V226h-9.1L76.9,224.8L76.9,224.8z M77.9,218.4c0.4,0.2,1,0.3,1.7,0.3s1.3-0.1,1.7-0.3
			c0.4-0.2,0.6-0.5,0.6-0.9c0-0.4-0.2-0.7-0.7-0.9s-1-0.4-1.7-0.4s-1.3,0.1-1.7,0.3c-0.4,0.2-0.6,0.5-0.6,0.9S77.4,218.2,77.9,218.4
			z M87.6,214.8v9.5h-1.7v-0.8h-3.1v-1.1h3.1v-7.6L87.6,214.8L87.6,214.8z"/>
		<path class="st0" d="M95,226.3c0.5-0.4,0.8-0.7,0.9-0.8c0.9-0.8,1.6-1.4,2.1-1.9c0.5-0.5,0.9-1,1.3-1.6c0.4-0.5,0.5-1.1,0.5-1.6
			c0-0.7-0.2-1.3-0.7-1.8c-0.4-0.4-1-0.6-1.7-0.6c-1.2,0-2.1,0.6-2.6,1.8l-1.5-0.7c0.4-1,1-1.7,1.8-2.1s1.5-0.6,2.2-0.6
			c0.7,0,1.3,0.2,1.9,0.5c0.6,0.3,1.1,0.8,1.5,1.4c0.4,0.6,0.6,1.3,0.6,2.1s-0.2,1.5-0.7,2.2c-0.4,0.7-1,1.4-1.6,2s-1.4,1.4-2.4,2.3
			c-0.5,0.4-0.8,0.7-0.7,0.6h5.6v1.6h-8v-1.6h0C94,227.2,94.5,226.8,95,226.3L95,226.3z"/>
		<path class="st0" d="M103.3,223.2L103.3,223.2l3.9-6.9h1.8l-2.6,4.6c0.2-0.1,0.5-0.1,0.8-0.1c0.8,0,1.5,0.2,2.1,0.6
			c0.7,0.4,1.2,0.9,1.6,1.6c0.4,0.7,0.6,1.4,0.6,2.2s-0.2,1.5-0.6,2.2c-0.4,0.7-0.9,1.2-1.6,1.6c-0.7,0.4-1.4,0.6-2.1,0.6
			s-1.5-0.2-2.1-0.6s-1.2-0.9-1.6-1.6c-0.4-0.7-0.6-1.4-0.6-2.2C102.8,224.5,103,223.8,103.3,223.2z M109.1,227.2
			c0.5-0.5,0.8-1.1,0.8-2s-0.3-1.4-0.8-1.9c-0.5-0.5-1.2-0.8-2-0.8s-1.4,0.3-2,0.8c-0.5,0.5-0.8,1.2-0.8,1.9s0.3,1.5,0.8,2
			c0.5,0.5,1.2,0.8,2,0.8S108.6,227.7,109.1,227.2L109.1,227.2z"/>
		<path class="st0" d="M119,215.8c0.6,0.3,1.1,0.7,1.5,1.3s0.5,1.2,0.5,1.9c0,0.7-0.2,1.3-0.5,1.9c-0.3,0.5-0.8,1-1.5,1.3
			c-0.6,0.3-1.3,0.5-2.1,0.5s-1.5-0.2-2.1-0.5c-0.6-0.3-1.1-0.7-1.5-1.3c-0.3-0.5-0.5-1.2-0.5-1.9c0-0.7,0.2-1.3,0.5-1.9
			c0.3-0.5,0.8-1,1.5-1.3c0.6-0.3,1.3-0.5,2.1-0.5S118.4,215.5,119,215.8z M115.1,220.5c0.5,0.4,1.1,0.6,1.8,0.6s1.3-0.2,1.8-0.6
			c0.5-0.4,0.7-0.9,0.7-1.6c0-0.7-0.2-1.2-0.7-1.6c-0.5-0.4-1.1-0.6-1.8-0.6s-1.3,0.2-1.8,0.6s-0.7,1-0.7,1.6
			C114.4,219.6,114.6,220.1,115.1,220.5z M115.2,223.7h10.3v4.1h-8.7v1.6h9.2v1.3h-10.8v-4.2h8.7v-1.5h-8.7V223.7L115.2,223.7z
			 M123.8,214.8h1.7v8.2h-1.7V214.8z"/>
		<path class="st0" d="M128.8,222.9c0-1.3,0.2-2.7,0.6-3.9s0.9-2.5,1.6-3.6h1.7c-0.8,1.1-1.4,2.3-1.8,3.6s-0.6,2.6-0.6,3.9
			c0,1.3,0.2,2.6,0.6,3.9s1,2.5,1.8,3.6H131c-0.7-1.1-1.2-2.3-1.6-3.6C129,225.6,128.8,224.2,128.8,222.9z"/>
		<path class="st0" d="M138,226.5v-1.7c-0.9-0.1-1.6-0.5-2.1-1c-0.5-0.5-0.8-1.2-0.8-2c0-0.6,0.2-1.1,0.5-1.6s0.8-0.8,1.3-1.1
			s1.2-0.4,2-0.4s1.4,0.1,2,0.4c0.6,0.2,1,0.6,1.3,1.1s0.5,1,0.5,1.6c0,0.8-0.3,1.4-0.8,2s-1.2,0.8-2.1,1v1.6
			c1.6-0.1,2.9-0.2,4.1-0.4l0.1,1.2c-1.5,0.3-3,0.4-4.6,0.5s-3.3,0.1-5.2,0.1l-0.2-1.4C135.6,226.5,137,226.5,138,226.5L138,226.5z
			 M134.1,216.7h3.9v-1.9h1.6v1.9h3.9v1.3h-9.4V216.7z M137.2,223.1c0.4,0.3,0.9,0.5,1.6,0.5s1.2-0.2,1.6-0.5s0.6-0.7,0.6-1.2
			s-0.2-0.9-0.6-1.2c-0.4-0.3-0.9-0.5-1.6-0.5s-1.2,0.2-1.6,0.5c-0.4,0.3-0.6,0.7-0.6,1.2S136.8,222.8,137.2,223.1z M146.3,214.8
			v6.8h2.4v1.4h-2.4v8h-1.6v-16.2L146.3,214.8L146.3,214.8z"/>
		<path class="st0" d="M153.5,222.9c0,1.3-0.2,2.6-0.6,3.9s-0.9,2.5-1.6,3.6h-1.7c0.8-1.1,1.4-2.3,1.8-3.6c0.4-1.3,0.6-2.6,0.6-3.9
			s-0.2-2.7-0.6-3.9c-0.4-1.3-1-2.5-1.8-3.6h1.7c0.7,1.1,1.2,2.3,1.6,3.6C153.4,220.3,153.5,221.6,153.5,222.9z"/>
		<path class="st0" d="M159.9,219.4c0.4-1,0.9-1.8,1.7-2.3c0.7-0.5,1.6-0.8,2.5-0.8s1.8,0.3,2.5,0.8s1.3,1.3,1.6,2.3
			s0.6,2.2,0.6,3.5s-0.2,2.5-0.6,3.5c-0.4,1-0.9,1.8-1.6,2.3c-0.7,0.5-1.6,0.8-2.5,0.8s-1.8-0.3-2.5-0.8s-1.3-1.3-1.7-2.3
			c-0.4-1-0.6-2.2-0.6-3.5C159.3,221.6,159.5,220.4,159.9,219.4z M166.4,226.6c0.5-0.8,0.8-2.1,0.8-3.7s-0.3-2.9-0.8-3.7
			c-0.5-0.8-1.3-1.2-2.3-1.2c-2.1,0-3.2,1.7-3.2,5c0,1.7,0.3,2.9,0.8,3.7c0.6,0.8,1.3,1.2,2.4,1.2S165.9,227.5,166.4,226.6
			L166.4,226.6z"/>
		<path class="st0" d="M170.6,218.3c0.4-0.7,0.9-1.2,1.6-1.6s1.4-0.6,2.1-0.6s1.5,0.2,2.1,0.6c0.7,0.4,1.2,0.9,1.6,1.6
			c0.4,0.7,0.6,1.4,0.6,2.2c0,0.6-0.1,1.2-0.4,1.7h0l-4,7.2h-1.8l2.6-4.6c-0.2,0-0.5,0.1-0.8,0.1c-0.8,0-1.5-0.2-2.2-0.6
			c-0.7-0.4-1.2-0.9-1.6-1.6c-0.4-0.7-0.6-1.4-0.6-2.2S170.2,219,170.6,218.3L170.6,218.3z M172.3,218.6c-0.5,0.5-0.8,1.1-0.8,1.9
			s0.3,1.4,0.8,2c0.5,0.5,1.2,0.8,2,0.8s1.4-0.3,2-0.8c0.5-0.5,0.8-1.2,0.8-2s-0.2-1.4-0.8-1.9s-1.2-0.8-2-0.8
			S172.9,218.1,172.3,218.6L172.3,218.6z"/>
		<path class="st0" d="M182.3,219.1c0.2,0.2,0.2,0.4,0.2,0.7c0,0.3-0.1,0.5-0.2,0.7c-0.2,0.2-0.4,0.3-0.7,0.3s-0.5-0.1-0.7-0.3
			c-0.2-0.2-0.2-0.4-0.2-0.7c0-0.3,0.1-0.5,0.2-0.7c0.2-0.2,0.4-0.3,0.7-0.3S182.1,218.9,182.3,219.1z M180.9,225.3
			c0.2-0.2,0.4-0.3,0.7-0.3s0.5,0.1,0.7,0.3c0.2,0.2,0.2,0.4,0.2,0.7s-0.1,0.5-0.2,0.7c-0.2,0.2-0.4,0.3-0.7,0.3s-0.5-0.1-0.7-0.3
			c-0.2-0.2-0.2-0.4-0.2-0.7S180.7,225.5,180.9,225.3L180.9,225.3z"/>
		<path class="st0" d="M185.1,219.4c0.4-1,0.9-1.8,1.7-2.3c0.7-0.5,1.6-0.8,2.5-0.8s1.8,0.3,2.5,0.8s1.3,1.3,1.6,2.3
			s0.6,2.2,0.6,3.5s-0.2,2.5-0.6,3.5c-0.4,1-0.9,1.8-1.6,2.3c-0.7,0.5-1.6,0.8-2.5,0.8s-1.8-0.3-2.5-0.8s-1.3-1.3-1.7-2.3
			c-0.4-1-0.6-2.2-0.6-3.5C184.5,221.6,184.7,220.4,185.1,219.4z M191.6,226.6c0.5-0.8,0.8-2.1,0.8-3.7s-0.3-2.9-0.8-3.7
			c-0.5-0.8-1.3-1.2-2.3-1.2c-2.1,0-3.2,1.7-3.2,5c0,1.7,0.3,2.9,0.8,3.7c0.6,0.8,1.3,1.2,2.4,1.2S191,227.5,191.6,226.6
			L191.6,226.6z"/>
		<path class="st0" d="M195.7,219.4c0.4-1,0.9-1.8,1.7-2.3c0.7-0.5,1.6-0.8,2.5-0.8s1.8,0.3,2.5,0.8s1.3,1.3,1.6,2.3
			s0.6,2.2,0.6,3.5s-0.2,2.5-0.6,3.5c-0.4,1-0.9,1.8-1.6,2.3c-0.7,0.5-1.6,0.8-2.5,0.8s-1.8-0.3-2.5-0.8s-1.3-1.3-1.7-2.3
			c-0.4-1-0.6-2.2-0.6-3.5C195.1,221.6,195.3,220.4,195.7,219.4z M202.2,226.6c0.5-0.8,0.8-2.1,0.8-3.7s-0.3-2.9-0.8-3.7
			c-0.5-0.8-1.3-1.2-2.3-1.2c-2.1,0-3.2,1.7-3.2,5c0,1.7,0.3,2.9,0.8,3.7c0.6,0.8,1.3,1.2,2.4,1.2S201.7,227.5,202.2,226.6
			L202.2,226.6z"/>
		<path class="st0" d="M213.8,221.9c0.2,0.2,0.3,0.5,0.3,0.9c0,0.4-0.1,0.7-0.3,0.9c-0.2,0.2-0.5,0.3-0.9,0.3s-0.7-0.1-0.9-0.3
			c-0.2-0.2-0.3-0.5-0.3-0.9c0-0.4,0.1-0.6,0.3-0.9c0.2-0.2,0.5-0.3,0.9-0.3S213.6,221.7,213.8,221.9z"/>
		<path class="st0" d="M230,216.2v1.4h-1.5v5.1c1-0.1,1.7-0.1,2.2-0.2l0.1,1.2c-2.4,0.4-5.5,0.6-9.5,0.6l-0.2-1.4l1.9,0v-5.3h-1.5
			v-1.4H230L230,216.2z M223.4,225.6h1.6v3.6h9v1.4h-10.6L223.4,225.6L223.4,225.6z M226.9,222.8v-5.2h-2.3v5.3
			C225.1,222.9,225.8,222.8,226.9,222.8z M231.7,214.8h1.6v4.8h2.3v1.4h-2.3v5.7h-1.6V214.8L231.7,214.8z"/>
		<path class="st0" d="M236.2,227.4h3.4v-5.3h1.6v5.3h2.3v-5.3h1.6v5.3h5.4v1.4h-14.3L236.2,227.4L236.2,227.4z M248.9,216.3v1.7
			c0,1.4,0,2.6-0.1,3.6s-0.2,2.3-0.4,3.6l-1.6-0.2c0.2-1.3,0.4-2.5,0.4-3.5c0.1-1,0.1-2.2,0.1-3.6v-0.4h-9.6v-1.4L248.9,216.3
			L248.9,216.3z"/>
		<path class="st0" d="M267.5,215.4v1.1c0,0.8,0,1.4,0,2.1c0,0.6-0.1,1.3-0.3,2.1h2.1v1.4h-14.3v-1.4h10.5c0.1-0.7,0.3-1.4,0.3-2
			s0.1-1.2,0.1-1.9h-9.1v-1.4H267.5L267.5,215.4z M256.6,223.5h10.9v4.2h-9.2v1.7h9.6v1.3h-11.2v-4.3h9.2v-1.6h-9.3L256.6,223.5
			L256.6,223.5z"/>
		<path class="st0" d="M276.4,227.6v-2.9h-4.6v-5.1h9.2v-2.3h-9.3v-1.4h10.9v5h-9.2v2.4h9.6v1.4h-5v2.9h6.4v1.4h-14.3v-1.4H276.4
			L276.4,227.6z"/>
		<path class="st0" d="M298.3,214.8v8.3h-1.6v-3.5h-3.5v2.9h-7.2v-7.1h1.6v2.2h4v-2.2h1.6v2.8h3.5v-3.5L298.3,214.8L298.3,214.8z
			 M291.6,221.2V219h-4v2.2H291.6z M288,223.9h10.2v4h-8.6v1.5h9.2v1.3h-10.8v-4.1h8.6v-1.4h-8.6L288,223.9L288,223.9z"/>
		<path class="st0" d="M301.1,216.2h5.2c0.7,0,1.4,0.2,2,0.6s1.1,0.9,1.5,1.5c0.4,0.7,0.5,1.4,0.5,2.1c0,1-0.3,1.8-0.9,2.6
			s-1.3,1.2-2.2,1.5l3.7,5.1h-1.9l-3.5-4.9h-2.9v4.9h-1.6L301.1,216.2L301.1,216.2z M307.6,222.7c0.4-0.2,0.7-0.6,0.9-1
			c0.2-0.4,0.4-0.8,0.4-1.3c0-0.5-0.1-0.9-0.4-1.3s-0.5-0.7-0.9-0.9s-0.8-0.4-1.3-0.4h-3.6v5.3h3.6
			C306.8,223.1,307.2,223,307.6,222.7L307.6,222.7z"/>
		<path class="st0" d="M321.9,229.6l-1.2-1.4c-1.1,1-2.3,1.6-3.7,1.6c-1.2,0-2-0.3-2.7-0.8c-0.6-0.5-1-1.1-1.2-1.6
			c-0.2-0.6-0.3-1-0.3-1.4c0-0.3,0.1-0.6,0.2-1.1c0.1-0.4,0.3-0.9,0.7-1.5c0.3-0.5,0.8-1,1.4-1.4c-0.4-0.4-0.8-0.9-1-1.3
			s-0.4-0.9-0.4-1.5c0-0.5,0.1-0.9,0.4-1.4c0.2-0.5,0.6-0.9,1.1-1.2c0.5-0.3,1.1-0.5,1.8-0.5s1.2,0.2,1.8,0.5
			c0.5,0.3,0.9,0.7,1.1,1.2c0.3,0.5,0.4,1,0.4,1.5c0,0.7-0.2,1.2-0.6,1.8c-0.4,0.5-1,1-1.9,1.5l2.8,3.1c0.2-0.4,0.5-0.8,0.7-1.3
			c0.2-0.5,0.4-0.8,0.5-0.9l1.5,0.8c0,0.1-0.2,0.4-0.5,1s-0.6,1.1-1,1.7l2.3,2.6L321.9,229.6L321.9,229.6z M315,227.4
			c0.3,0.5,1,0.7,2,0.7s1.8-0.4,2.6-1.1l-3.2-3.7c-0.7,0.4-1.2,0.8-1.5,1.3s-0.4,1-0.4,1.3C314.5,226.4,314.7,226.9,315,227.4
			L315,227.4z M315.7,220c0.1,0.2,0.4,0.5,0.7,0.8l0.4,0.4c0.7-0.4,1.2-0.7,1.5-1c0.3-0.3,0.4-0.6,0.4-0.9c0-0.4-0.1-0.8-0.4-1.1
			c-0.3-0.3-0.7-0.5-1.2-0.5c-0.6,0-1,0.2-1.3,0.4c-0.3,0.3-0.4,0.7-0.4,1.1C315.5,219.6,315.6,219.8,315.7,220L315.7,220z"/>
		<path class="st0" d="M325.6,216.2h3.8c1.2,0,2.3,0.3,3.3,0.9c1,0.6,1.8,1.4,2.4,2.4s0.9,2.1,0.9,3.4c0,1.2-0.3,2.3-0.9,3.3
			c-0.6,1-1.4,1.8-2.4,2.4c-1,0.6-2.1,0.9-3.3,0.9h-3.8V216.2L325.6,216.2z M331.8,227.3c0.8-0.4,1.4-1.1,1.8-1.8
			c0.4-0.8,0.7-1.6,0.7-2.5c0-0.9-0.2-1.8-0.7-2.5c-0.4-0.8-1-1.4-1.8-1.8c-0.8-0.5-1.6-0.7-2.5-0.7h-2.1v10.1h2.1
			C330.2,227.9,331,227.7,331.8,227.3L331.8,227.3z"/>
		<path class="st0" d="M339.6,221.2c0.6-1,0.8-1.9,0.8-3v-2.3h1.6v2.3c0,1,0.3,1.9,0.8,2.8s1.3,1.5,2.2,1.9l-0.9,1.3
			c-0.7-0.3-1.2-0.8-1.7-1.3s-0.9-1.2-1.1-1.9c-0.3,0.8-0.7,1.5-1.2,2.1c-0.5,0.6-1.1,1.1-1.9,1.5l-0.9-1.3
			C338.2,222.8,339,222.1,339.6,221.2L339.6,221.2z M340.2,225.4h1.6v3.8h9.2v1.4h-10.9C340.2,230.6,340.2,225.4,340.2,225.4z
			 M345.9,218.7v-3.7h1.6v11.3h-1.6v-6.3h-2.3v-1.4H345.9z M349,214.8h1.6v12.1H349V214.8z"/>
		<path class="st0" d="M353.1,216.2h7.3v1.4h-5.7v3.2h5v1.3h-5v3.7c1.4,0,2.6,0,3.6-0.1c1-0.1,2-0.2,3-0.4l0.2,1.4
			c-1.1,0.2-2.1,0.3-3.2,0.4c-1.1,0.1-2.4,0.1-4,0.1h-1.2L353.1,216.2L353.1,216.2z M365.5,214.7v16.2h-1.6v-8.8h-3.1v-1.4h3.1v-6
			L365.5,214.7L365.5,214.7z"/>
		<path class="st0" d="M371.7,216.7h5.9v1.4h-4.2v7.5c1.1,0,2-0.1,2.8-0.1c0.8-0.1,1.5-0.2,2.3-0.4l0.2,1.4
			c-0.9,0.2-1.8,0.3-2.6,0.4c-0.9,0.1-1.9,0.1-3.1,0.1h-1.1V216.7L371.7,216.7z M384.6,214.8v16.2H383v-8.4h-2v7.5h-1.5v-15h1.5v6.1
			h2v-6.4C383,214.8,384.6,214.8,384.6,214.8z"/>
		<path class="st0" d="M390.7,220.8c1.1-1,1.7-2.2,1.9-3.5H387v-1.4h7.3c0,2.1-0.6,3.8-1.9,5.3c-1.3,1.5-3.1,2.6-5.4,3.3l-0.7-1.4
			C388.1,222.6,389.6,221.8,390.7,220.8L390.7,220.8z M389,226c0.4-0.5,1-0.9,1.8-1.1c0.8-0.3,1.7-0.4,2.7-0.4s2,0.1,2.7,0.4
			c0.8,0.3,1.4,0.6,1.8,1.1c0.4,0.5,0.6,1.1,0.6,1.7s-0.2,1.2-0.6,1.7c-0.4,0.5-1,0.8-1.8,1.1c-0.8,0.3-1.7,0.4-2.7,0.4
			s-2-0.1-2.7-0.4s-1.4-0.6-1.8-1.1c-0.4-0.5-0.6-1-0.6-1.7C388.4,227.1,388.6,226.5,389,226z M391,229.1c0.6,0.3,1.5,0.5,2.6,0.5
			s2-0.2,2.6-0.5c0.6-0.3,1-0.8,1-1.3s-0.3-1-1-1.4c-0.6-0.3-1.5-0.5-2.6-0.5s-2,0.2-2.6,0.5s-1,0.8-1,1.4S390.3,228.7,391,229.1z
			 M398.6,214.8v4.1h2.3v1.4h-2.3v4.1H397v-9.6L398.6,214.8L398.6,214.8z"/>
		<path class="st0" d="M402.1,215.9h7v1.4h-5.4v4.4c1.6,0,2.9,0,3.9-0.1c1-0.1,2-0.2,3-0.4l0.2,1.4c-1,0.2-2.1,0.4-3.2,0.4
			c-1.1,0.1-2.5,0.1-4.2,0.1h-1.3L402.1,215.9L402.1,215.9z M404.8,225.5c0.9-0.6,2.2-0.8,3.8-0.8s2.9,0.3,3.8,0.8s1.4,1.3,1.4,2.3
			s-0.5,1.8-1.4,2.3c-0.9,0.6-2.2,0.8-3.8,0.8s-2.9-0.3-3.8-0.8s-1.4-1.3-1.4-2.3C403.4,226.8,403.9,226,404.8,225.5z M406,229.1
			c0.6,0.3,1.5,0.5,2.7,0.5s2-0.2,2.7-0.5c0.6-0.3,1-0.8,1-1.3c0-0.6-0.3-1-1-1.3c-0.6-0.3-1.5-0.5-2.7-0.5s-2,0.2-2.7,0.5
			c-0.6,0.3-1,0.7-1,1.3C405,228.3,405.4,228.8,406,229.1z M413.8,214.8v4.1h2.2v1.4h-2.2v4h-1.7v-9.6H413.8z"/>
		<path class="st0" d="M417.8,222.9c0-1.3,0.2-2.7,0.6-3.9s0.9-2.5,1.6-3.6h1.7c-0.8,1.1-1.4,2.3-1.8,3.6s-0.6,2.6-0.6,3.9
			c0,1.3,0.2,2.6,0.6,3.9s1,2.5,1.8,3.6h-1.7c-0.7-1.1-1.2-2.3-1.6-3.6C417.9,225.6,417.8,224.2,417.8,222.9z"/>
		<path class="st0" d="M426.5,229.4H425v-11.3l-1.4,0.5l-0.5-1.5l1.9-0.7h1.5C426.5,216.4,426.5,229.4,426.5,229.4z"/>
		<path class="st0" d="M442.7,222.9v1.4h-14.3v-1.4H442.7z M431.9,220.1c0.8-0.3,1.5-0.6,1.9-1.1c0.5-0.4,0.7-0.9,0.8-1.4h-4.8v-1.3
			h4.9v-1.6h1.6v1.6h4.9v1.3h-4.8c0.1,0.5,0.3,1,0.8,1.4c0.5,0.4,1.1,0.8,1.9,1.1c0.8,0.3,1.7,0.5,2.8,0.6l-0.5,1.3
			c-1.4-0.1-2.6-0.4-3.6-0.9c-1-0.5-1.8-1.1-2.3-1.8c-0.5,0.7-1.2,1.3-2.3,1.8c-1,0.5-2.2,0.8-3.6,0.9l-0.5-1.3
			C430.2,220.6,431.1,220.4,431.9,220.1L431.9,220.1z M431.5,226.2c1-0.5,2.3-0.7,4-0.7s3.1,0.2,4,0.7c1,0.5,1.4,1.1,1.4,2
			c0,0.9-0.5,1.5-1.4,2c-1,0.5-2.3,0.7-4,0.7s-3.1-0.2-4-0.7s-1.4-1.1-1.4-2S430.6,226.7,431.5,226.2z M432.7,229.3
			c0.6,0.2,1.6,0.4,2.8,0.4s2.1-0.1,2.8-0.4s1-0.6,1-1c0-0.5-0.3-0.8-1-1.1c-0.6-0.2-1.6-0.4-2.8-0.4s-2.2,0.1-2.8,0.4s-1,0.6-1,1.1
			C431.7,228.7,432.1,229,432.7,229.3z"/>
		<path class="st0" d="M447.9,222.9c0,1.3-0.2,2.6-0.6,3.9c-0.4,1.3-0.9,2.5-1.6,3.6H444c0.8-1.1,1.4-2.3,1.8-3.6
			c0.4-1.3,0.6-2.6,0.6-3.9s-0.2-2.7-0.6-3.9c-0.4-1.3-1-2.5-1.8-3.6h1.7c0.7,1.1,1.2,2.3,1.6,3.6
			C447.8,220.3,447.9,221.6,447.9,222.9z"/>
		<path class="st0" d="M458.1,221.9c0.2,0.2,0.3,0.5,0.3,0.9c0,0.4-0.1,0.7-0.3,0.9c-0.2,0.2-0.5,0.3-0.9,0.3s-0.7-0.1-0.9-0.3
			c-0.2-0.2-0.3-0.5-0.3-0.9c0-0.4,0.1-0.6,0.3-0.9c0.2-0.2,0.5-0.3,0.9-0.3S457.9,221.7,458.1,221.9z"/>
		<path class="st0" d="M559.9,215.8v2.1c0,0.9,0.3,1.8,0.8,2.6c0.6,0.8,1.3,1.4,2.3,1.8l-0.9,1.3c-0.7-0.3-1.3-0.7-1.8-1.2
			c-0.5-0.5-0.9-1.1-1.2-1.8c-0.3,0.8-0.7,1.5-1.3,2.1s-1.2,1.1-1.9,1.4l-0.9-1.3c1-0.5,1.8-1.1,2.4-2.1c0.6-0.9,0.9-1.8,0.9-2.8
			v-2.1L559.9,215.8L559.9,215.8z M559.3,225.8c1-0.5,2.2-0.8,3.9-0.8s3,0.3,3.9,0.8c1,0.5,1.4,1.2,1.4,2.1s-0.5,1.6-1.4,2.1
			c-1,0.5-2.2,0.8-3.9,0.8s-2.9-0.3-3.9-0.8c-1-0.5-1.4-1.2-1.4-2.1S558.4,226.3,559.3,225.8z M560.5,229.2c0.7,0.3,1.5,0.4,2.7,0.4
			s2.1-0.1,2.7-0.4s1-0.7,1-1.2s-0.3-0.9-1-1.2s-1.5-0.4-2.7-0.4s-2.1,0.1-2.7,0.4s-1,0.7-1,1.2S559.9,228.9,560.5,229.2z
			 M563.5,215.1h1.6v4h1.8v-4.2h1.6v9.9h-1.6v-4.3H565v3.8h-1.6C563.5,224.2,563.5,215.1,563.5,215.1z"/>
		<path class="st0" d="M584.5,222.3v1.4h-6.4v1.6c1.5,0.1,2.6,0.4,3.4,0.9c0.8,0.5,1.2,1.2,1.2,2c0,0.9-0.5,1.6-1.4,2.1
			c-1,0.5-2.3,0.7-4,0.7s-3-0.2-4-0.7c-1-0.5-1.4-1.2-1.4-2.1c0-0.8,0.4-1.5,1.2-2c0.8-0.5,1.9-0.8,3.4-0.9v-1.6h-6.3v-1.4H584.5
			L584.5,222.3z M573.5,219.4c0.8-0.3,1.4-0.7,1.9-1.1c0.5-0.4,0.8-0.9,0.8-1.5h-4.8v-1.4h11.7v1.4h-4.8c0.1,0.5,0.3,1,0.8,1.5
			c0.5,0.5,1.1,0.8,1.9,1.2c0.8,0.3,1.6,0.5,2.6,0.6l-0.6,1.3c-1.4-0.2-2.6-0.5-3.6-1.1c-1-0.6-1.8-1.3-2.2-2.1
			c-0.4,0.9-1.2,1.6-2.2,2.1c-1,0.6-2.2,0.9-3.6,1.1L571,220C571.9,220,572.8,219.8,573.5,219.4L573.5,219.4z M574.5,229.2
			c0.7,0.3,1.6,0.4,2.8,0.4s2.1-0.1,2.8-0.4s1-0.6,1-1.1s-0.3-0.9-1-1.2c-0.6-0.3-1.6-0.4-2.8-0.4s-2.1,0.1-2.8,0.4
			c-0.7,0.3-1,0.7-1,1.2S573.9,228.9,574.5,229.2z"/>
		<path class="st0" d="M594.1,223.2v-2.7h-2.4c-0.8,2.9-2.6,5.2-5.4,6.9l-0.9-1.2c3.2-2,4.9-4.7,5.2-8.1h-4.5v-1.4h6.1
			c0,0.9-0.1,1.7-0.2,2.4h2.1v-4.1h1.6v15h-1.6v-5.5h-2.7v-1.4H594.1L594.1,223.2z M597.3,214.7h1.6v16.2h-1.6V214.7z"/>
	</g>
	<g>
		<path class="st2" d="M492.6,216.4c-0.3-1.1-1.2-2.1-2.4-2.4c-2.1-0.6-10.5-0.6-10.5-0.6s-8.4,0-10.5,0.6c-1.1,0.3-2.1,1.2-2.4,2.4
			c-0.6,2.1-0.6,6.4-0.6,6.4s0,4.4,0.6,6.4c0.3,1.2,1.2,2.1,2.4,2.4c2.1,0.6,10.5,0.6,10.5,0.6s8.4,0,10.5-0.6
			c1.1-0.3,2-1.2,2.4-2.4c0.6-2.1,0.6-6.4,0.6-6.4S493.2,218.5,492.6,216.4"/>
		<polygon class="st0" points="477.1,226.8 484.1,222.8 477.1,218.8 		"/>
		<g>
			<path class="st0" d="M505.3,230.5c-0.5-0.4-0.9-0.9-1.1-1.7c-0.2-0.8-0.3-1.8-0.3-3v-1.7c0-1.3,0.1-2.3,0.4-3
				c0.3-0.8,0.6-1.3,1.2-1.7c0.5-0.3,1.2-0.5,2.1-0.5s1.6,0.2,2.1,0.5c0.5,0.4,0.9,0.9,1.1,1.7c0.2,0.8,0.4,1.8,0.4,3v1.7
				c0,1.2-0.1,2.2-0.4,3c-0.2,0.8-0.6,1.3-1.1,1.7c-0.5,0.3-1.2,0.5-2.1,0.5S505.8,230.9,505.3,230.5 M508.2,228.7
				c0.1-0.4,0.2-1,0.2-1.9v-3.7c0-0.8-0.1-1.5-0.2-1.8s-0.4-0.6-0.8-0.6s-0.6,0.2-0.8,0.6c-0.1,0.4-0.2,1-0.2,1.8v3.7
				c0,0.9,0.1,1.5,0.2,1.9c0.1,0.4,0.4,0.6,0.8,0.6S508.1,229.1,508.2,228.7"/>
			<path class="st0" d="M545.9,225.9v0.6c0,0.8,0,1.3,0.1,1.7c0,0.4,0.1,0.7,0.3,0.8s0.4,0.3,0.7,0.3c0.4,0,0.7-0.1,0.8-0.5
				c0.2-0.3,0.2-0.8,0.2-1.5l2.3,0.1c0,0.1,0,0.2,0,0.4c0,1.1-0.3,1.9-0.9,2.4c-0.6,0.5-1.4,0.8-2.5,0.8c-1.3,0-2.2-0.4-2.7-1.2
				c-0.5-0.8-0.8-2.1-0.8-3.8V224c0-1.8,0.3-3.1,0.8-3.9s1.5-1.2,2.8-1.2c0.9,0,1.6,0.2,2.1,0.5c0.5,0.3,0.8,0.9,1,1.6
				s0.3,1.7,0.3,2.9v2L545.9,225.9L545.9,225.9z M546.2,220.9c-0.1,0.2-0.2,0.4-0.3,0.8c0,0.4-0.1,0.9-0.1,1.7v0.8h1.9v-0.8
				c0-0.8,0-1.3-0.1-1.7c0-0.4-0.1-0.7-0.3-0.8c-0.1-0.2-0.3-0.2-0.6-0.2S546.4,220.8,546.2,220.9"/>
			<path class="st0" d="M498.8,225.7l-3-10.9h2.6l1,4.9c0.3,1.2,0.5,2.2,0.6,3.1h0.1c0.1-0.6,0.3-1.6,0.6-3.1l1.1-4.9h2.6l-3,10.9
				v5.2h-2.6L498.8,225.7L498.8,225.7z"/>
			<path class="st0" d="M519.6,219.1v11.7h-2.1l-0.2-1.4h-0.1c-0.6,1.1-1.4,1.6-2.5,1.6c-0.8,0-1.3-0.2-1.7-0.8
				c-0.4-0.5-0.5-1.3-0.5-2.4v-8.8h2.6v8.6c0,0.5,0.1,0.9,0.2,1.1c0.1,0.2,0.3,0.3,0.6,0.3c0.2,0,0.5-0.1,0.7-0.2
				c0.2-0.1,0.4-0.3,0.5-0.5v-9.3H519.6L519.6,219.1z"/>
			<path class="st0" d="M533.2,219.1v11.7h-2.1l-0.2-1.4h-0.1c-0.6,1.1-1.4,1.6-2.5,1.6c-0.8,0-1.3-0.2-1.7-0.8
				c-0.4-0.5-0.6-1.3-0.6-2.4v-8.8h2.6v8.6c0,0.5,0.1,0.9,0.2,1.1s0.3,0.3,0.6,0.3c0.2,0,0.5-0.1,0.7-0.2c0.2-0.1,0.4-0.3,0.5-0.5
				v-9.3H533.2L533.2,219.1z"/>
			<polygon class="st0" points="526.8,216.9 524.2,216.9 524.2,230.9 521.6,230.9 521.6,216.9 519,216.9 519,214.8 526.8,214.8 			
				"/>
			<path class="st0" d="M541.9,221c-0.2-0.7-0.4-1.3-0.8-1.6c-0.4-0.3-0.8-0.5-1.5-0.5c-0.5,0-0.9,0.1-1.4,0.4s-0.8,0.6-1,1.1h0
				v-6.2h-2.5v16.7h2.2l0.3-1.1h0.1c0.2,0.4,0.5,0.7,0.9,0.9c0.4,0.2,0.9,0.3,1.4,0.3c0.9,0,1.5-0.4,2-1.2c0.4-0.8,0.6-2.1,0.6-3.9
				v-1.9C542.2,222.8,542.1,221.7,541.9,221 M539.5,225.8c0,0.9,0,1.5-0.1,2c-0.1,0.5-0.2,0.8-0.3,1c-0.2,0.2-0.4,0.3-0.7,0.3
				c-0.2,0-0.4-0.1-0.6-0.2c-0.2-0.1-0.3-0.2-0.5-0.5v-6.7c0.1-0.3,0.2-0.6,0.5-0.8c0.2-0.2,0.5-0.3,0.7-0.3s0.5,0.1,0.6,0.3
				c0.2,0.2,0.2,0.6,0.3,1.1c0.1,0.5,0.1,1.2,0.1,2.1L539.5,225.8L539.5,225.8z"/>
		</g>
	</g>
</g>
</svg>
