<?xml version="1.0" encoding="UTF-8"?><svg id="Layer_1" xmlns="http://www.w3.org/2000/svg" viewBox="0 0 138 23.32"><defs><style>.cls-1{fill:#0a0a0a;}</style></defs><g><g><g><path class="cls-1" d="m42.83,14.22l-.24,2.11h-9.32l.24-2.11h-4.34l-.83,7.77s-.13.64.13.95c.27.31.83.28.83.28h16.88l.98-9.01h-4.33Zm-.73,6.63h-9.32l.23-2.11h9.33l-.24,2.11Z"/><polygon class="cls-1" points="48.22 4.52 48.62 .65 44.29 .65 42.95 13.08 47.28 13.08 47.92 7.18 51.39 7.19 51.68 4.52 48.22 4.52"/></g><path class="cls-1" d="m36.58,1.84l.2-1.84h-4.34l-.19,1.84h-5.76l-.28,2.68h1.63c-.72.87-1.2,1.88-1.31,2.96-.34,3.23,2.64,5.84,6.65,5.84s7.53-2.62,7.87-5.84c.12-1.08-.15-2.08-.68-2.95h1.58s.28-2.64.28-2.64v-.05s-5.65,0-5.65,0Zm-3.1,8.58c-1.66,0-2.87-1.37-2.69-3.06.17-1.7,1.67-3.07,3.34-3.07s2.88,1.38,2.71,3.07c-.17,1.69-1.67,3.06-3.35,3.06Z"/></g><g><path class="cls-1" d="m54.66,8.7l.83-7.66h4.32l-.66,6.19h15.43l-.31,2.89h-18.7s-.51.02-.8-.28c-.29-.29-.11-1.14-.11-1.14Z"/><polygon class="cls-1" points="52.74 12.71 52.44 15.65 56.89 15.65 56.03 23.32 60.36 23.32 61.22 15.65 66.48 15.65 65.63 23.32 69.95 23.32 70.81 15.65 75.08 15.65 75.4 12.71 52.74 12.71"/></g><g><path class="cls-1" d="m12.54,11.45h5.28l-.58,5.34h4.33L23.32.66h-4.32l-.27,2.53h-5.27c-1.27-1.51-3.21-2.41-5.48-2.41C3.79.77.43,3.66.04,7.22c-.41,3.57,2.31,6.47,6.5,6.47,2.3,0,4.46-.87,6-2.25m2.12-5.62h3.77l-.32,2.97h-3.71c.53-1.56.27-2.97.27-2.97Zm-10.6,1.53c.19-1.7,1.73-3.2,3.73-3.2,2.01,0,3.35,1.5,3.16,3.21-.19,1.7-1.97,3.09-3.97,3.09-2,0-3.11-1.39-2.92-3.09Z"/><path class="cls-1" d="m7.75,20.57l.53-5.42H3.97s-.7,6.86-.7,6.86c0,0-.13.6.23.95.35.35.91.27.91.27h16.86l.29-2.65H7.75Z"/></g><polygon class="cls-1" points="100.46 21.2 100.73 18.33 77.27 18.33 76.96 21.2 100.46 21.2"/><path class="cls-1" d="m88.03.68s-1.6,9.49-9.32,9.99l-.33,2.98s8.76,0,11.64-6.95c0,0,2.48,6.4,10.37,7.1l.28-2.88s-6.87-.44-7.73-10.25h-4.91Z"/></g><g><path class="cls-1" d="m124.62.76l.95,3.69h-10.45l-1.97,17.13h-4.12l1.97-17.13h-7.22l.42-3.69h20.42Z"/><path class="cls-1" d="m133.75.76h4.25l-9.07,20.82h-3.87L120.85.76h4.36l2.43,15.81,6.11-15.81Z"/></g></svg>